{
  "accessors": [
    {
      "bufferView": 2,
      "componentType": 5126,
      "count": 6312,
      "max": [
        142.47686767578125,
        27.678672790527344,
        409.9928283691406
      ],
      "min": [
        -155.8187713623047,
        -53.831966400146484,
        1.7590184211730957
      ],
      "type": "VEC3"
    },
    {
      "bufferView": 2,
      "byteOffset": 75744,
      "componentType": 5126,
      "count": 6312,
      "max": [
        0.997701108455658,
        0.9976585507392883,
        0.9997612237930298
      ],
      "min": [
        -0.9976934790611267,
        -0.9976599812507629,
        -0.9983908534049988
      ],
      "type": "VEC3"
    },
    {
      "bufferView": 1,
      "componentType": 5126,
      "count": 6312,
      "max": [
        0.98486328125,
        0.956817626953125
      ],
      "min": [
        0.0150299072265625,
        0.0224609375
      ],
      "type": "VEC2"
    },
    {
      "bufferView": 1,
      "byteOffset": 50496,
      "componentType": 5126,
      "count": 6312,
      "max": [
        0.9921875,
        0.9921875
      ],
      "min": [
        0.0,
        0.0
      ],
      "type": "VEC2"
    },
    {
      "bufferView": 0,
      "componentType": 5125,
      "count": 6312,
      "type": "SCALAR"
    }
  ],
  "asset": {
    "extras": {
      "author": "SMF Features Developed From Cheryl Hill (https://sketchfab.com/cherylhill28)",
      "license": "CC-BY-4.0 (http://creativecommons.org/licenses/by/4.0/)",
      "source": "https://sketchfab.com/3d-models/bfbbr-bikini-bottom-sign-0acbd2788641416ab6a2d7fa3559d732",
      "title": "BFBBR - Bikini Bottom Sign"
    },
    "generator": "Sketchfab-16.61.0",
    "version": "2.0"
  },
  "bufferViews": [
    {
      "buffer": 0,
      "byteLength": 25248,
      "name": "floatBufferViews",
      "target": 34963
    },
    {
      "buffer": 0,
      "byteLength": 100992,
      "byteOffset": 25248,
      "byteStride": 8,
      "name": "floatBufferViews",
      "target": 34962
    },
    {
      "buffer": 0,
      "byteLength": 151488,
      "byteOffset": 126240,
      "byteStride": 12,
      "name": "floatBufferViews",
      "target": 34962
    }
  ],
  "buffers": [
    {
      "byteLength": 277728,
      "uri": "scene.bin"
    }
  ],
  "images": [
    {
      "uri": "textures/MI_BB_FloatSign_baseColor.png"
    }
  ],
  "materials": [
    {
      "doubleSided": true,
      "name": "MI_BB_FloatSign",
      "pbrMetallicRoughness": {
        "baseColorTexture": {
          "index": 0
        },
        "metallicFactor": 0.0,
        "roughnessFactor": 0.8239417257461427
      }
    }
  ],
  "meshes": [
    {
      "name": "SM_BB_FloatSign_01.mo_MI_BB_FloatSign_0",
      "primitives": [
        {
          "attributes": {
            "NORMAL": 1,
            "POSITION": 0,
            "TEXCOORD_0": 2,
            "TEXCOORD_1": 3
          },
          "indices": 4,
          "material": 0,
          "mode": 4
        }
      ]
    }
  ],
  "nodes": [
    {
      "children": [
        1
      ],
      "matrix": [
        1.0,
        0.0,
        0.0,
        0.0,
        0.0,
        2.220446049250313e-16,
        -1.0,
        0.0,
        0.0,
        1.0,
        2.220446049250313e-16,
        0.0,
        0.0,
        0.0,
        0.0,
        1.0
      ],
      "name": "Sketchfab_model"
    },
    {
      "children": [
        2
      ],
      "matrix": [
        0.009999999776482582,
        0.0,
        0.0,
        0.0,
        0.0,
        0.0,
        0.009999999776482582,
        0.0,
        0.0,
        -0.009999999776482582,
        0.0,
        0.0,
        0.0,
        0.0,
        0.0,
        1.0
      ],
      "name": "de17bbf944904c3ba16d207cd6040125.fbx"
    },
    {
      "children": [
        3
      ],
      "name": "RootNode"
    },
    {
      "children": [
        4
      ],
      "matrix": [
        100.0,
        0.0,
        0.0,
        0.0,
        0.0,
        -1.629206793918314e-05,
        -99.99999999999868,
        0.0,
        0.0,
        99.99999999999868,
        -1.629206793918314e-05,
        0.0,
        0.0,
        0.0,
        0.0,
        1.0
      ],
      "name": "SM_BB_FloatSign_01.mo"
    },
    {
      "mesh": 0,
      "name": "SM_BB_FloatSign_01.mo_MI_BB_FloatSign_0"
    }
  ],
  "samplers": [
    {
      "magFilter": 9729,
      "minFilter": 9987,
      "wrapS": 10497,
      "wrapT": 10497
    }
  ],
  "scene": 0,
  "scenes": [
    {
      "name": "Sketchfab_Scene",
      "nodes": [
        0
      ]
    }
  ],
  "textures": [
    {
      "sampler": 0,
      "source": 0
    }
  ]
}
