{
  "accessors": [
    {
      "bufferView": 2,
      "componentType": 5126,
      "count": 1054,
      "max": [
        5.117969989776611,
        1.33788001537323,
        8.798800468444824
      ],
      "min": [
        -17.084999084472656,
        -7.735529899597168,
        1.0000499486923218
      ],
      "type": "VEC3"
    },
    {
      "bufferView": 2,
      "byteOffset": 12648,
      "componentType": 5126,
      "count": 1054,
      "max": [
        0.9922183752059937,
        0.9894609451293945,
        0.8103960752487183
      ],
      "min": [
        -0.9978986978530884,
        -0.9885470867156982,
        -0.999845027923584
      ],
      "type": "VEC3"
    },
    {
      "bufferView": 1,
      "componentType": 5126,
      "count": 1054,
      "max": [
        1.6448099613189697,
        3.6463699340820313
      ],
      "min": [
        -1.7134300470352173,
        -2.6994400024414063
      ],
      "type": "VEC2"
    },
    {
      "bufferView": 0,
      "componentType": 5125,
      "count": 2832,
      "type": "SCALAR"
    },
    {
      "bufferView": 2,
      "byteOffset": 25296,
      "componentType": 5126,
      "count": 5376,
      "max": [
        -1.5967400074005127,
        10.446700096130371,
        6.426270008087158
      ],
      "min": [
        -21.902599334716797,
        -6.547389984130859,
        0.011964299716055393
      ],
      "type": "VEC3"
    },
    {
      "bufferView": 2,
      "byteOffset": 89808,
      "componentType": 5126,
      "count": 5376,
      "max": [
        0.999845027923584,
        0.999721109867096,
        1.0
      ],
      "min": [
        -0.999845027923584,
        -0.9994733929634094,
        -0.9999690055847168
      ],
      "type": "VEC3"
    },
    {
      "bufferView": 1,
      "byteOffset": 8432,
      "componentType": 5126,
      "count": 5376,
      "max": [
        3.4903199672698975,
        4.0551300048828125
      ],
      "min": [
        -3.18356990814209,
        -4.043489933013916
      ],
      "type": "VEC2"
    },
    {
      "bufferView": 0,
      "byteOffset": 11328,
      "componentType": 5125,
      "count": 20328,
      "type": "SCALAR"
    },
    {
      "bufferView": 2,
      "byteOffset": 154320,
      "componentType": 5126,
      "count": 3549,
      "max": [
        -1.6375700235366821,
        10.421500205993652,
        6.386849880218506
      ],
      "min": [
        -21.87849998474121,
        -6.523709774017334,
        0.03322890028357506
      ],
      "type": "VEC3"
    },
    {
      "bufferView": 2,
      "byteOffset": 196908,
      "componentType": 5126,
      "count": 3549,
      "max": [
        0.9999380111694336,
        0.9996901750564575,
        0.9999690055847168
      ],
      "min": [
        -0.9997521042823792,
        -0.999721109867096,
        -1.0
      ],
      "type": "VEC3"
    },
    {
      "bufferView": 1,
      "byteOffset": 51440,
      "componentType": 5126,
      "count": 3549,
      "max": [
        0.9882799983024597,
        0.9767739772796631
      ],
      "min": [
        0.010283700190484524,
        0.0035544000566005707
      ],
      "type": "VEC2"
    },
    {
      "bufferView": 0,
      "byteOffset": 92640,
      "componentType": 5125,
      "count": 20328,
      "type": "SCALAR"
    },
    {
      "bufferView": 2,
      "byteOffset": 239496,
      "componentType": 5126,
      "count": 630,
      "max": [
        17.649799346923828,
        14.51360034942627,
        5.689760208129883
      ],
      "min": [
        -19.546199798583984,
        -8.109490394592285,
        0.5099490284919739
      ],
      "type": "VEC3"
    },
    {
      "bufferView": 2,
      "byteOffset": 247056,
      "componentType": 5126,
      "count": 630,
      "max": [
        0.9859343767166138,
        0.9888209700584412,
        0.999721109867096
      ],
      "min": [
        -0.9931116700172424,
        -0.987132728099823,
        -0.9999690055847168
      ],
      "type": "VEC3"
    },
    {
      "bufferView": 1,
      "byteOffset": 79832,
      "componentType": 5126,
      "count": 630,
      "max": [
        0.9882820248603821,
        0.9770439863204956
      ],
      "min": [
        0.015023600310087204,
        0.02024249918758869
      ],
      "type": "VEC2"
    },
    {
      "bufferView": 0,
      "byteOffset": 173952,
      "componentType": 5125,
      "count": 2970,
      "type": "SCALAR"
    },
    {
      "bufferView": 2,
      "byteOffset": 254616,
      "componentType": 5126,
      "count": 2970,
      "max": [
        17.808399200439453,
        14.727800369262695,
        5.917240142822266
      ],
      "min": [
        -19.696399688720703,
        -8.25806999206543,
        0.4678559899330139
      ],
      "type": "VEC3"
    },
    {
      "bufferView": 2,
      "byteOffset": 290256,
      "componentType": 5126,
      "count": 2970,
      "max": [
        1.0,
        0.9993805885314941,
        1.0
      ],
      "min": [
        -0.9988549947738647,
        -0.9979910850524902,
        -0.9999380111694336
      ],
      "type": "VEC3"
    },
    {
      "bufferView": 1,
      "byteOffset": 84872,
      "componentType": 5126,
      "count": 2970,
      "max": [
        4.880529880523682,
        4.069250106811523
      ],
      "min": [
        -5.2359299659729,
        -4.9227399826049805
      ],
      "type": "VEC2"
    },
    {
      "bufferView": 0,
      "byteOffset": 185832,
      "componentType": 5125,
      "count": 11880,
      "type": "SCALAR"
    },
    {
      "bufferView": 2,
      "byteOffset": 325896,
      "componentType": 5126,
      "count": 963,
      "max": [
        5.045529842376709,
        3.560839891433716,
        8.70304012298584
      ],
      "min": [
        -17.003799438476563,
        -7.62421989440918,
        1.0068399906158447
      ],
      "type": "VEC3"
    },
    {
      "bufferView": 2,
      "byteOffset": 337452,
      "componentType": 5126,
      "count": 963,
      "max": [
        0.9998760223388672,
        0.9970064759254456,
        0.999845027923584
      ],
      "min": [
        -0.9994423985481262,
        -0.9994423985481262,
        -0.826848566532135
      ],
      "type": "VEC3"
    },
    {
      "bufferView": 1,
      "byteOffset": 108632,
      "componentType": 5126,
      "count": 963,
      "max": [
        0.9683099985122681,
        0.9998049736022949
      ],
      "min": [
        0.00019525300012901425,
        0.03485359996557236
      ],
      "type": "VEC2"
    },
    {
      "bufferView": 0,
      "byteOffset": 233352,
      "componentType": 5125,
      "count": 4248,
      "type": "SCALAR"
    },
    {
      "bufferView": 2,
      "byteOffset": 349008,
      "componentType": 5126,
      "count": 237,
      "max": [
        -11.821700096130371,
        14.975000381469727,
        8.530929565429688
      ],
      "min": [
        -16.028799057006836,
        11.291500091552734,
        3.368259906768799
      ],
      "type": "VEC3"
    },
    {
      "bufferView": 2,
      "byteOffset": 351852,
      "componentType": 5126,
      "count": 237,
      "max": [
        0.9933894872665405,
        0.9996901750564575,
        0.9965152740478516
      ],
      "min": [
        -0.99534010887146,
        -0.9988549947738647,
        -0.6212772727012634
      ],
      "type": "VEC3"
    },
    {
      "bufferView": 1,
      "byteOffset": 116336,
      "componentType": 5126,
      "count": 237,
      "max": [
        0.9800500273704529,
        0.9696469902992249
      ],
      "min": [
        0.02167630009353161,
        0.02077290043234825
      ],
      "type": "VEC2"
    },
    {
      "bufferView": 0,
      "byteOffset": 250344,
      "componentType": 5125,
      "count": 1080,
      "type": "SCALAR"
    },
    {
      "bufferView": 2,
      "byteOffset": 354696,
      "componentType": 5126,
      "count": 5964,
      "max": [
        -5.35821008682251,
        12.90939998626709,
        3.5908401012420654
      ],
      "min": [
        -13.21090030670166,
        -2.1074299812316895,
        0.6152660250663757
      ],
      "type": "VEC3"
    },
    {
      "bufferView": 2,
      "byteOffset": 426264,
      "componentType": 5126,
      "count": 5964,
      "max": [
        0.9995043277740479,
        0.9995972514152527,
        1.0
      ],
      "min": [
        -0.9995043277740479,
        -0.9999380111694336,
        -1.0
      ],
      "type": "VEC3"
    },
    {
      "bufferView": 1,
      "byteOffset": 118232,
      "componentType": 5126,
      "count": 5964,
      "max": [
        1.6483299732208252,
        1.7255699634552002
      ],
      "min": [
        -1.2203999757766724,
        -0.6814209818840027
      ],
      "type": "VEC2"
    },
    {
      "bufferView": 0,
      "byteOffset": 254664,
      "componentType": 5125,
      "count": 15408,
      "type": "SCALAR"
    }
  ],
  "asset": {
    "extras": {
      "author": "SMF Features Developed From Cheryl Hill (https://sketchfab.com/cherylhill28)",
      "license": "CC-BY-4.0 (http://creativecommons.org/licenses/by/4.0/)",
      "source": "https://sketchfab.com/3d-models/tscp-decorations-f7984a8428a34ad9bfb24c77c3bd8c45",
      "title": "TSCP - Decorations"
    },
    "generator": "Sketchfab-16.72.0",
    "version": "2.0"
  },
  "bufferViews": [
    {
      "buffer": 0,
      "byteLength": 316296,
      "name": "floatBufferViews",
      "target": 34963
    },
    {
      "buffer": 0,
      "byteLength": 165944,
      "byteOffset": 316296,
      "byteStride": 8,
      "name": "floatBufferViews",
      "target": 34962
    },
    {
      "buffer": 0,
      "byteLength": 497832,
      "byteOffset": 482240,
      "byteStride": 12,
      "name": "floatBufferViews",
      "target": 34962
    }
  ],
  "buffers": [
    {
      "byteLength": 980072,
      "uri": "scene.bin"
    }
  ],
  "extensionsUsed": [
    "KHR_materials_unlit"
  ],
  "images": [
    {
      "uri": "textures/SeaFlower1Mtl_baseColor.png"
    },
    {
      "uri": "textures/Smallrock11Mtl_baseColor.png"
    },
    {
      "uri": "textures/Tubes1Mtl_baseColor.png"
    },
    {
      "uri": "textures/Tubes2Mtl_baseColor.png"
    }
  ],
  "materials": [
    {
      "extensions": {
        "KHR_materials_unlit": {}
      },
      "name": "Outline1Mtl",
      "pbrMetallicRoughness": {
        "baseColorFactor": [
          0.0619075,
          0.0160677,
          0.0103978,
          1.0
        ],
        "metallicFactor": 0.0
      }
    },
    {
      "extensions": {
        "KHR_materials_unlit": {}
      },
      "name": "Outlines1Mtl",
      "pbrMetallicRoughness": {
        "baseColorFactor": [
          0.0717615,
          0.0738278,
          0.133209,
          1.0
        ],
        "metallicFactor": 0.0
      }
    },
    {
      "doubleSided": true,
      "emissiveTexture": {
        "index": 0
      },
      "extensions": {
        "KHR_materials_unlit": {}
      },
      "name": "SeaFlower1Mtl",
      "pbrMetallicRoughness": {
        "baseColorTexture": {
          "index": 0
        },
        "metallicFactor": 0.0
      }
    },
    {
      "doubleSided": true,
      "emissiveTexture": {
        "index": 1
      },
      "extensions": {
        "KHR_materials_unlit": {}
      },
      "name": "Smallrock11Mtl",
      "pbrMetallicRoughness": {
        "baseColorTexture": {
          "index": 1
        },
        "metallicFactor": 0.0
      }
    },
    {
      "extensions": {
        "KHR_materials_unlit": {}
      },
      "name": "Smallrock1outline1Mtl",
      "pbrMetallicRoughness": {
        "baseColorFactor": [
          5.0770499999989005e-06,
          0.014310500000000002,
          0.0160677,
          1.0
        ],
        "metallicFactor": 0.0
      }
    },
    {
      "emissiveTexture": {
        "index": 2
      },
      "extensions": {
        "KHR_materials_unlit": {}
      },
      "name": "Tubes1Mtl",
      "pbrMetallicRoughness": {
        "baseColorTexture": {
          "index": 2
        },
        "metallicFactor": 0.0
      }
    },
    {
      "emissiveTexture": {
        "index": 3
      },
      "extensions": {
        "KHR_materials_unlit": {}
      },
      "name": "Tubes2Mtl",
      "pbrMetallicRoughness": {
        "baseColorTexture": {
          "index": 3
        },
        "metallicFactor": 0.0
      }
    },
    {
      "doubleSided": true,
      "extensions": {
        "KHR_materials_unlit": {}
      },
      "name": "Urchin1Mtl",
      "pbrMetallicRoughness": {
        "baseColorFactor": [
          0.0,
          0.0,
          0.0,
          1.0
        ],
        "metallicFactor": 0.0
      }
    }
  ],
  "meshes": [
    {
      "name": "Object_0",
      "primitives": [
        {
          "attributes": {
            "NORMAL": 1,
            "POSITION": 0,
            "TEXCOORD_0": 2
          },
          "indices": 3,
          "material": 0,
          "mode": 4
        }
      ]
    },
    {
      "name": "Object_1",
      "primitives": [
        {
          "attributes": {
            "NORMAL": 5,
            "POSITION": 4,
            "TEXCOORD_0": 6
          },
          "indices": 7,
          "material": 1,
          "mode": 4
        }
      ]
    },
    {
      "name": "Object_2",
      "primitives": [
        {
          "attributes": {
            "NORMAL": 9,
            "POSITION": 8,
            "TEXCOORD_0": 10
          },
          "indices": 11,
          "material": 2,
          "mode": 4
        }
      ]
    },
    {
      "name": "Object_3",
      "primitives": [
        {
          "attributes": {
            "NORMAL": 13,
            "POSITION": 12,
            "TEXCOORD_0": 14
          },
          "indices": 15,
          "material": 3,
          "mode": 4
        }
      ]
    },
    {
      "name": "Object_4",
      "primitives": [
        {
          "attributes": {
            "NORMAL": 17,
            "POSITION": 16,
            "TEXCOORD_0": 18
          },
          "indices": 19,
          "material": 4,
          "mode": 4
        }
      ]
    },
    {
      "name": "Object_5",
      "primitives": [
        {
          "attributes": {
            "NORMAL": 21,
            "POSITION": 20,
            "TEXCOORD_0": 22
          },
          "indices": 23,
          "material": 5,
          "mode": 4
        }
      ]
    },
    {
      "name": "Object_6",
      "primitives": [
        {
          "attributes": {
            "NORMAL": 25,
            "POSITION": 24,
            "TEXCOORD_0": 26
          },
          "indices": 27,
          "material": 6,
          "mode": 4
        }
      ]
    },
    {
      "name": "Object_7",
      "primitives": [
        {
          "attributes": {
            "NORMAL": 29,
            "POSITION": 28,
            "TEXCOORD_0": 30
          },
          "indices": 31,
          "material": 7,
          "mode": 4
        }
      ]
    }
  ],
  "nodes": [
    {
      "children": [
        1
      ],
      "matrix": [
        2.220446049250313e-16,
        2.220446049250313e-16,
        -1.0,
        0.0,
        -1.0,
        4.930380657631324e-32,
        -2.220446049250313e-16,
        0.0,
        0.0,
        1.0,
        2.220446049250313e-16,
        0.0,
        0.0,
        0.0,
        0.0,
        1.0
      ],
      "name": "Sketchfab_model"
    },
    {
      "children": [
        2,
        3,
        4,
        5,
        6,
        7,
        8,
        9
      ],
      "name": "Decorations.obj.cleaner.materialmerger.gles"
    },
    {
      "mesh": 0,
      "name": "Object_2"
    },
    {
      "mesh": 1,
      "name": "Object_3"
    },
    {
      "mesh": 2,
      "name": "Object_4"
    },
    {
      "mesh": 3,
      "name": "Object_5"
    },
    {
      "mesh": 4,
      "name": "Object_6"
    },
    {
      "mesh": 5,
      "name": "Object_7"
    },
    {
      "mesh": 6,
      "name": "Object_8"
    },
    {
      "mesh": 7,
      "name": "Object_9"
    }
  ],
  "samplers": [
    {
      "magFilter": 9729,
      "minFilter": 9987,
      "wrapS": 10497,
      "wrapT": 10497
    }
  ],
  "scene": 0,
  "scenes": [
    {
      "name": "Sketchfab_Scene",
      "nodes": [
        0
      ]
    }
  ],
  "textures": [
    {
      "sampler": 0,
      "source": 0
    },
    {
      "sampler": 0,
      "source": 1
    },
    {
      "sampler": 0,
      "source": 2
    },
    {
      "sampler": 0,
      "source": 3
    }
  ]
}
