{
  "accessors": [
    {
      "bufferView": 3,
      "componentType": 5126,
      "count": 4704,
      "max": [
        1.4067872762680054,
        1.722668170928955,
        1.5533055067062378
      ],
      "min": [
        -1.8823795318603516,
        0.0006209613638930023,
        -1.5533088445663452
      ],
      "type": "VEC3"
    },
    {
      "bufferView": 3,
      "byteOffset": 56448,
      "componentType": 5126,
      "count": 4704,
      "max": [
        1.0,
        0.9999996423721313,
        0.9999696016311646
      ],
      "min": [
        -0.9999909996986389,
        -1.0,
        -0.9999696016311646
      ],
      "type": "VEC3"
    },
    {
      "bufferView": 2,
      "componentType": 5126,
      "count": 4704,
      "max": [
        0.99462890625,
        0.9960956573486328
      ],
      "min": [
        0.00390625,
        0.00390625
      ],
      "type": "VEC2"
    },
    {
      "bufferView": 1,
      "componentType": 5125,
      "count": 23004,
      "type": "SCALAR"
    },
    {
      "bufferView": 5,
      "componentType": 5126,
      "count": 24,
      "max": [
        39.370079040527344,
        0.9578941464424133,
        0.9999998807907104,
        0.0,
        0.9578940868377686,
        39.370079040527344,
        0.32752102613449097,
        0.0,
        0.9960343837738037,
        6.079084187149419e-07,
        39.370079040527344,
        0.0,
        1.4447752237319946,
        1.376250147819519,
        0.46576762199401855,
        1.0
      ],
      "min": [
        -0.999983549118042,
        -0.9578943252563477,
        -0.9423627257347107,
        0.0,
        -0.9578941464424133,
        -0.9873440265655518,
        -0.3276402950286865,
        0.0,
        -0.9999998807907104,
        -0.08478138595819473,
        -1.0000001192092896,
        0.0,
        -1.4446687698364258,
        -1.376250982284546,
        -0.4657686650753021,
        1.0
      ],
      "type": "MAT4"
    },
    {
      "bufferView": 0,
      "componentType": 5123,
      "count": 4704,
      "type": "VEC4"
    },
    {
      "bufferView": 4,
      "componentType": 5126,
      "count": 4704,
      "max": [
        1.0,
        0.49803924560546875,
        0.25882354378700256,
        0.011764707043766975
      ],
      "min": [
        0.38431376218795776,
        0.0,
        0.0,
        0.0
      ],
      "type": "VEC4"
    }
  ],
  "asset": {
    "extras": {
      "author": "Sajin Mickey Firey fan 1342 from Cheryl hill (https://sketchfab.com/cherylhill28)",
      "license": "CC-BY-4.0 (http://creativecommons.org/licenses/by/4.0/)",
      "source": "https://sketchfab.com/3d-models/fat-guy-fish-bfbbr-561c111e90ec4ecf97c2e2e957b58f16",
      "title": "Fat Guy Fish (Bfbbr)"
    },
    "generator": "Sketchfab-16.0.0",
    "version": "2.0"
  },
  "bufferViews": [
    {
      "buffer": 0,
      "byteLength": 37632,
      "byteStride": 8,
      "name": "shortBufferViews",
      "target": 34962
    },
    {
      "buffer": 0,
      "byteLength": 92016,
      "byteOffset": 37632,
      "name": "floatBufferViews",
      "target": 34963
    },
    {
      "buffer": 0,
      "byteLength": 37632,
      "byteOffset": 129648,
      "byteStride": 8,
      "name": "floatBufferViews",
      "target": 34962
    },
    {
      "buffer": 0,
      "byteLength": 112896,
      "byteOffset": 167280,
      "byteStride": 12,
      "name": "floatBufferViews",
      "target": 34962
    },
    {
      "buffer": 0,
      "byteLength": 75264,
      "byteOffset": 280176,
      "byteStride": 16,
      "name": "floatBufferViews",
      "target": 34962
    },
    {
      "buffer": 0,
      "byteLength": 1536,
      "byteOffset": 355440,
      "name": "floatBufferViews"
    }
  ],
  "buffers": [
    {
      "byteLength": 356976,
      "uri": "scene.bin"
    }
  ],
  "extensionsUsed": [
    "KHR_materials_unlit"
  ],
  "images": [
    {
      "uri": "textures/MI_Fish_FatGuy_baseColor.png"
    }
  ],
  "materials": [
    {
      "doubleSided": true,
      "extensions": {
        "KHR_materials_unlit": {}
      },
      "name": "MI_Fish_FatGuy",
      "pbrMetallicRoughness": {
        "baseColorTexture": {
          "index": 0
        },
        "metallicFactor": 0.0
      }
    }
  ],
  "meshes": [
    {
      "name": "SK_Fat_Guy.mo_MI_Fish_FatGuy_0",
      "primitives": [
        {
          "attributes": {
            "JOINTS_0": 5,
            "NORMAL": 1,
            "POSITION": 0,
            "TEXCOORD_0": 2,
            "TEXCOORD_1": 2,
            "WEIGHTS_0": 6
          },
          "indices": 3,
          "material": 0,
          "mode": 4
        }
      ]
    }
  ],
  "nodes": [
    {
      "children": [
        1
      ],
      "matrix": [
        2.220446049250313e-16,
        -5.053215392444312e-16,
        1.0,
        0.0,
        1.0,
        2.2204460492503136e-16,
        -2.2204460492503126e-16,
        0.0,
        -2.220446049250313e-16,
        1.0,
        5.053215392444312e-16,
        0.0,
        0.0,
        0.0,
        0.0,
        1.0
      ],
      "name": "Sketchfab_model"
    },
    {
      "children": [
        2
      ],
      "matrix": [
        0.02539999969303608,
        0.0,
        0.0,
        0.0,
        0.0,
        0.0,
        0.02539999969303608,
        0.0,
        0.0,
        -0.02539999969303608,
        0.0,
        0.0,
        0.0,
        0.0,
        0.0,
        1.0
      ],
      "name": "SK_Fat_Guy.fbx"
    },
    {
      "children": [
        3
      ],
      "name": "RootNode"
    },
    {
      "children": [
        4
      ],
      "matrix": [
        39.370079040527344,
        0.0,
        0.0,
        0.0,
        0.0,
        8.74191364642115e-15,
        -39.370079040527344,
        0.0,
        0.0,
        39.370079040527344,
        8.74191364642115e-15,
        0.0,
        0.0,
        0.0,
        0.0,
        1.0
      ],
      "name": "SK_Fat_Guy.ao"
    },
    {
      "children": [
        5,
        30,
        29
      ],
      "name": "Object_4"
    },
    {
      "children": [
        6
      ],
      "name": "_rootJoint"
    },
    {
      "children": [
        7,
        8
      ],
      "name": "Main_M_00",
      "rotation": [
        0.4999999403953552,
        0.5000002384185791,
        0.5,
        0.4999997913837433
      ]
    },
    {
      "name": "jt_Raft_01",
      "rotation": [
        1.4210851327070215e-14,
        -1.1960841286861885e-14,
        6.617614505518844e-24,
        1.0
      ],
      "translation": [
        3.1573840431065037e-08,
        0.1847965121269226,
        -0.28597477078437805
      ]
    },
    {
      "children": [
        9,
        13,
        25
      ],
      "name": "Pelvis_M_02",
      "rotation": [
        0.1716153472661972,
        0.6859651803970337,
        0.17161501944065094,
        0.6859651803970337
      ],
      "translation": [
        -3.101624557189098e-08,
        0.7412657737731934,
        0.7095704078674316
      ]
    },
    {
      "children": [
        10
      ],
      "name": "Hip_R_03",
      "rotation": [
        0.16474871337413788,
        0.9861481189727783,
        0.0068472810089588165,
        -0.017967136576771736
      ],
      "translation": [
        -0.19629764556884766,
        -0.12685000896453857,
        -0.43365800380706787
      ]
    },
    {
      "children": [
        11
      ],
      "name": "Knee_R_04",
      "rotation": [
        8.27266575242902e-08,
        2.5595856101290337e-08,
        -0.05286353826522827,
        0.9986017346382141
      ],
      "translation": [
        0.1746518611907959,
        1.1920928955078125e-07,
        5.960464477539063e-08
      ]
    },
    {
      "children": [
        12
      ],
      "name": "Ankle_R_05",
      "rotation": [
        0.904395341873169,
        0.4264513850212097,
        0.014320897869765759,
        0.001774860662408173
      ],
      "translation": [
        0.1710195541381836,
        -5.960464477539063e-08,
        -2.9802322387695313e-08
      ]
    },
    {
      "name": "Toes_R_06",
      "rotation": [
        0.991722583770752,
        -0.12705209851264954,
        0.012877559289336205,
        0.013352036476135254
      ],
      "scale": [
        0.9999960064888,
        1.0,
        1.0
      ],
      "translation": [
        0.1745678186416626,
        2.9802322387695313e-08,
        -5.551115123125783e-17
      ]
    },
    {
      "children": [
        14
      ],
      "name": "Spine_M_07",
      "rotation": [
        -2.3145508976085694e-07,
        5.720039908396757e-08,
        -0.23991572856903076,
        0.9707937240600586
      ],
      "translation": [
        0.42294543981552124,
        1.1920928955078125e-07,
        9.085198371394654e-09
      ]
    },
    {
      "children": [
        15,
        18,
        22
      ],
      "name": "Chest_M_08",
      "rotation": [
        -2.1881091072373238e-07,
        1.7158650678084086e-07,
        -0.1241365447640419,
        0.9922651648521423
      ],
      "translation": [
        0.4931235611438751,
        5.960464477539063e-08,
        1.392860227156234e-08
      ]
    },
    {
      "children": [
        16
      ],
      "name": "Shoulder_R_09",
      "rotation": [
        0.7286614775657654,
        -0.05444508418440819,
        -0.6826110482215881,
        -0.011415617540478706
      ],
      "scale": [
        0.9999960064888,
        1.0,
        0.9999979734420776
      ],
      "translation": [
        0.38903331756591797,
        -0.3243250846862793,
        -1.0289216041564941
      ]
    },
    {
      "children": [
        17
      ],
      "name": "Elbow_R_010",
      "rotation": [
        -2.9824910541265126e-08,
        1.456875842187344e-09,
        0.013609584420919418,
        0.9999074935913086
      ],
      "translation": [
        0.31045079231262207,
        2.980232238769531e-07,
        -1.3709068298339844e-06
      ]
    },
    {
      "name": "Wrist_R_011",
      "rotation": [
        -4.470348358154297e-08,
        -1.862645593320167e-09,
        7.450580596923828e-09,
        1.0
      ],
      "translation": [
        0.14988815784454346,
        1.1920928955078125e-07,
        -6.258487701416016e-07
      ]
    },
    {
      "children": [
        19,
        20,
        21
      ],
      "name": "Head_M_012",
      "rotation": [
        4.733784919608297e-08,
        -4.7448159534724255e-07,
        0.0992746651172638,
        0.9950600862503052
      ],
      "translation": [
        0.6368501782417297,
        1.7881393432617188e-07,
        1.8827449821401387e-07
      ]
    },
    {
      "name": "Eye_R_013",
      "rotation": [
        -0.6146458387374878,
        0.7888033390045166,
        5.553598043661623e-07,
        -1.859047955576898e-07
      ],
      "translation": [
        0.9214189052581787,
        0.13327187299728394,
        -0.16053682565689087
      ]
    },
    {
      "name": "Jaw_M_014",
      "rotation": [
        4.378284472750238e-07,
        6.243177530507182e-09,
        0.5563964247703552,
        0.8309170007705688
      ],
      "translation": [
        0.2983027696609497,
        0.09416693449020386,
        -2.019235694206145e-07
      ]
    },
    {
      "name": "Eye_L_015",
      "rotation": [
        0.788803219795227,
        0.6146458387374878,
        -1.9294745357001375e-07,
        -2.476183169619617e-07
      ],
      "translation": [
        0.921419620513916,
        0.13327175378799438,
        0.1605355143547058
      ]
    },
    {
      "children": [
        23
      ],
      "name": "Shoulder_L_016",
      "rotation": [
        0.05443718284368515,
        0.7286736965179443,
        -0.011510548181831837,
        0.6825970411300659
      ],
      "translation": [
        0.38903260231018066,
        -0.32432568073272705,
        1.0289218425750732
      ]
    },
    {
      "children": [
        24
      ],
      "name": "Elbow_L_017",
      "rotation": [
        7.150764957941647e-08,
        2.20785793203504e-07,
        0.013609497807919979,
        0.9999074935913086
      ],
      "translation": [
        -0.31044960021972656,
        1.1920928955078125e-07,
        1.9371509552001953e-07
      ]
    },
    {
      "name": "Wrist_L_018",
      "rotation": [
        -1.4901219813623356e-08,
        -2.3655593395233154e-07,
        -2.421438694000244e-07,
        1.0
      ],
      "translation": [
        -0.14988768100738525,
        -5.960464477539063e-08,
        2.7755575615628914e-17
      ]
    },
    {
      "children": [
        26
      ],
      "name": "Hip_L_019",
      "rotation": [
        0.9861480593681335,
        -0.16474908590316772,
        0.017968032509088516,
        0.006846228148788214
      ],
      "scale": [
        1.0000020265579224,
        1.0,
        1.0
      ],
      "translation": [
        -0.1962975561618805,
        -0.12684977054595947,
        0.4336579740047455
      ]
    },
    {
      "children": [
        27
      ],
      "name": "Knee_L_020",
      "rotation": [
        2.2747965289227068e-08,
        4.4733093318427564e-07,
        -0.052863504737615585,
        0.9986017346382141
      ],
      "translation": [
        -0.1746513843536377,
        2.980232238769531e-07,
        2.384185791015625e-07
      ]
    },
    {
      "children": [
        28
      ],
      "name": "Ankle_L_021",
      "rotation": [
        0.904395580291748,
        0.4264509975910187,
        0.014320635236799717,
        0.001774332020431757
      ],
      "translation": [
        -0.17101943492889404,
        2.384185791015625e-07,
        5.960464477539063e-08
      ]
    },
    {
      "name": "Toes_L_022",
      "rotation": [
        0.9917226433753967,
        -0.12705138325691223,
        0.012882050126791,
        0.01335079688578844
      ],
      "scale": [
        0.9999960064888,
        0.9999989867210388,
        1.0
      ],
      "translation": [
        -0.1745671033859253,
        2.384185791015625e-07,
        5.960464477539063e-08
      ]
    },
    {
      "matrix": [
        39.370079040527344,
        -4.688090193827322e-16,
        0.0,
        0.0,
        2.870627324992362e-32,
        2.4107220639580053e-15,
        -39.370079040527344,
        0.0,
        4.688090193827322e-16,
        39.370079040527344,
        2.4107220639580053e-15,
        0.0,
        0.0,
        -3.552713678800501e-15,
        0.0,
        1.0
      ],
      "name": "Object_29"
    },
    {
      "mesh": 0,
      "name": "Object_30",
      "skin": 0
    }
  ],
  "samplers": [
    {
      "magFilter": 9729,
      "minFilter": 9987,
      "wrapS": 10497,
      "wrapT": 10497
    }
  ],
  "scene": 0,
  "scenes": [
    {
      "name": "Sketchfab_Scene",
      "nodes": [
        0
      ]
    }
  ],
  "skins": [
    {
      "inverseBindMatrices": 4,
      "joints": [
        5,
        6,
        7,
        8,
        9,
        10,
        11,
        12,
        13,
        14,
        15,
        16,
        17,
        18,
        19,
        20,
        21,
        22,
        23,
        24,
        25,
        26,
        27,
        28
      ],
      "skeleton": 5
    }
  ],
  "textures": [
    {
      "sampler": 0,
      "source": 0
    }
  ]
}
