{
  "accessors": [
    {
      "bufferView": 2,
      "componentType": 5126,
      "count": 983,
      "max": [
        51.65510177612305,
        94.13619995117188,
        123.5739974975586
      ],
      "min": [
        32.87120056152344,
        -93.02960205078125,
        -1.2543799877166748
      ],
      "type": "VEC3"
    },
    {
      "bufferView": 2,
      "byteOffset": 11796,
      "componentType": 5126,
      "count": 983,
      "max": [
        1.0,
        0.9999380111694336,
        0.9996901750564575
      ],
      "min": [
        -1.0,
        -0.9999690055847168,
        -0.9998760223388672
      ],
      "type": "VEC3"
    },
    {
      "bufferView": 1,
      "componentType": 5126,
      "count": 983,
      "max": [
        0.9739919900894165,
        0.9332550168037415
      ],
      "min": [
        0.006549620069563389,
        0.01236919965595007
      ],
      "type": "VEC2"
    },
    {
      "bufferView": 0,
      "componentType": 5125,
      "count": 3468,
      "type": "SCALAR"
    },
    {
      "bufferView": 2,
      "byteOffset": 23592,
      "componentType": 5126,
      "count": 3276,
      "max": [
        -37.03110122680664,
        82.8832015991211,
        83.0154037475586
      ],
      "min": [
        -64.58260345458984,
        39.56340026855469,
        0.17620499432086945
      ],
      "type": "VEC3"
    },
    {
      "bufferView": 2,
      "byteOffset": 62904,
      "componentType": 5126,
      "count": 3276,
      "max": [
        1.0,
        0.999721109867096,
        0.9999690055847168
      ],
      "min": [
        -1.0,
        -0.9992259740829468,
        -0.9991022348403931
      ],
      "type": "VEC3"
    },
    {
      "bufferView": 1,
      "byteOffset": 7864,
      "componentType": 5126,
      "count": 3276,
      "max": [
        0.9867569804191589,
        0.9836779832839966
      ],
      "min": [
        0.04612639918923378,
        0.018090499565005302
      ],
      "type": "VEC2"
    },
    {
      "bufferView": 0,
      "byteOffset": 13872,
      "componentType": 5125,
      "count": 18558,
      "type": "SCALAR"
    }
  ],
  "asset": {
    "extras": {
      "author": "SMF Friends Fan 2024 YouTube Live (https://sketchfab.com/cherylhill28)",
      "license": "CC-BY-4.0 (http://creativecommons.org/licenses/by/4.0/)",
      "source": "https://sketchfab.com/3d-models/downtown-bikini-bottom-01-tscp-roblox-a055d33b3ea94968ab7aa46cb7aecff2",
      "title": "DownTown Bikini Bottom 01 TSCP Roblox"
    },
    "generator": "Sketchfab-16.29.0",
    "version": "2.0"
  },
  "bufferViews": [
    {
      "buffer": 0,
      "byteLength": 88104,
      "name": "floatBufferViews",
      "target": 34963
    },
    {
      "buffer": 0,
      "byteLength": 34072,
      "byteOffset": 88104,
      "byteStride": 8,
      "name": "floatBufferViews",
      "target": 34962
    },
    {
      "buffer": 0,
      "byteLength": 102216,
      "byteOffset": 122176,
      "byteStride": 12,
      "name": "floatBufferViews",
      "target": 34962
    }
  ],
  "buffers": [
    {
      "byteLength": 224392,
      "uri": "scene.bin"
    }
  ],
  "images": [
    {
      "uri": "textures/Part1Mtl_baseColor.png"
    },
    {
      "uri": "textures/Part2Mtl_baseColor.png"
    }
  ],
  "materials": [
    {
      "doubleSided": true,
      "emissiveTexture": {
        "index": 0
      },
      "name": "Part1Mtl",
      "pbrMetallicRoughness": {
        "baseColorTexture": {
          "index": 0
        },
        "metallicFactor": 0.0
      }
    },
    {
      "emissiveTexture": {
        "index": 1
      },
      "name": "Part2Mtl",
      "pbrMetallicRoughness": {
        "baseColorTexture": {
          "index": 1
        },
        "metallicFactor": 0.0
      }
    }
  ],
  "meshes": [
    {
      "name": "Object_0",
      "primitives": [
        {
          "attributes": {
            "NORMAL": 1,
            "POSITION": 0,
            "TEXCOORD_0": 2
          },
          "indices": 3,
          "material": 0,
          "mode": 4
        }
      ]
    },
    {
      "name": "Object_1",
      "primitives": [
        {
          "attributes": {
            "NORMAL": 5,
            "POSITION": 4,
            "TEXCOORD_0": 6
          },
          "indices": 7,
          "material": 1,
          "mode": 4
        }
      ]
    }
  ],
  "nodes": [
    {
      "children": [
        1
      ],
      "matrix": [
        1.0,
        0.0,
        0.0,
        0.0,
        0.0,
        2.220446049250313e-16,
        -1.0,
        0.0,
        0.0,
        1.0,
        2.220446049250313e-16,
        0.0,
        0.0,
        0.0,
        0.0,
        1.0
      ],
      "name": "Sketchfab_model"
    },
    {
      "children": [
        2,
        3
      ],
      "name": "DownTown_Bikini_Bottom_Rig.obj.cleaner.materialmerger.gles"
    },
    {
      "mesh": 0,
      "name": "Object_2"
    },
    {
      "mesh": 1,
      "name": "Object_3"
    }
  ],
  "samplers": [
    {
      "magFilter": 9729,
      "minFilter": 9987,
      "wrapS": 10497,
      "wrapT": 10497
    }
  ],
  "scene": 0,
  "scenes": [
    {
      "name": "Sketchfab_Scene",
      "nodes": [
        0
      ]
    }
  ],
  "textures": [
    {
      "sampler": 0,
      "source": 0
    },
    {
      "sampler": 0,
      "source": 1
    }
  ]
}
